HIERARCHY
ROOT Hips
{
	OFFSET 0.000000 0.000000 0.000000
	CHANNELS 6 Xposition Yposition Zposition Yrotation Xrotation Zrotation
	JOINT Chest
	{
		OFFSET 0.000000 -0.009281 11.569106
		CHANNELS 3 Yrotation Xrotation Zrotation
		JOINT Chest2
		{
			OFFSET -0.000000 0.016865 9.269641
			CHANNELS 3 Yrotation Xrotation Zrotation
			JOINT Chest3
			{
				OFFSET -0.000000 0.000001 8.374491
				CHANNELS 3 Yrotation Xrotation Zrotation
				JOINT Chest4
				{
					OFFSET -0.000000 0.000001 8.374493
					CHANNELS 3 Yrotation Xrotation Zrotation
					JOINT Neck
					{
						OFFSET -0.000000 0.000002 12.152554
						CHANNELS 3 Yrotation Xrotation Zrotation
						JOINT Head
						{
							OFFSET -0.000000 0.040101 7.802319
							CHANNELS 3 Yrotation Xrotation Zrotation
							End Site
							{
								OFFSET -0.000000 0.020947 14.853096
							}
						}
					}
					JOINT RightCollar
					{
						OFFSET 2.894404 0.000001 6.791374
						CHANNELS 3 Yrotation Xrotation Zrotation
						JOINT RightShoulder
						{
							OFFSET 13.574684 0.000001 0.000000
							CHANNELS 3 Yrotation Xrotation Zrotation
							JOINT RightElbow
							{
								OFFSET 23.923903 0.000002 0.000000
								CHANNELS 3 Yrotation Xrotation Zrotation
								JOINT RightWrist
								{
									OFFSET 19.846718 0.012767 0.000000
									CHANNELS 3 Yrotation Xrotation Zrotation
									End Site
									{
										OFFSET 14.973145 0.000001 0.000000
									}
								}
							}
						}
					}
					JOINT LeftCollar
					{
						OFFSET -2.894404 0.000001 6.791374
						CHANNELS 3 Yrotation Xrotation Zrotation
						JOINT LeftShoulder
						{
							OFFSET -13.574684 -0.000001 0.000000
							CHANNELS 3 Yrotation Xrotation Zrotation
							JOINT LeftElbow
							{
								OFFSET -23.923903 -0.000002 0.000000
								CHANNELS 3 Yrotation Xrotation Zrotation
								JOINT LeftWrist
								{
									OFFSET -19.846718 0.012763 0.000000
									CHANNELS 3 Yrotation Xrotation Zrotation
									End Site
									{
										OFFSET -14.973145 -0.000001 0.000000
									}
								}
							}
						}
					}
				}
			}
		}
	}
	JOINT RightHip
	{
		OFFSET 9.469263 0.004643 0.045487
		CHANNELS 3 Yrotation Xrotation Zrotation
		JOINT RightKnee
		{
			OFFSET 0.000000 0.002661 -40.478676
			CHANNELS 3 Yrotation Xrotation Zrotation
			JOINT RightAnkle
			{
				OFFSET 0.000000 0.049106 -35.224068
				CHANNELS 3 Yrotation Xrotation Zrotation
				JOINT RightToe
				{
					OFFSET -0.000001 12.539529 -6.151390
					CHANNELS 3 Yrotation Xrotation Zrotation
					End Site
					{
						OFFSET -0.000001 5.044994 -1.291870
					}
				}
			}
		}
	}
	JOINT LeftHip
	{
		OFFSET -9.469263 0.004641 0.045487
		CHANNELS 3 Yrotation Xrotation Zrotation
		JOINT LeftKnee
		{
			OFFSET 0.000000 0.002661 -40.478676
			CHANNELS 3 Yrotation Xrotation Zrotation
			JOINT LeftAnkle
			{
				OFFSET 0.000000 0.049106 -35.224068
				CHANNELS 3 Yrotation Xrotation Zrotation
				JOINT LeftToe
				{
					OFFSET -0.000001 12.539529 -6.151390
					CHANNELS 3 Yrotation Xrotation Zrotation
					End Site
					{
						OFFSET -0.000001 5.044994 -1.291870
					}
				}
			}
		}
	}
}
MOTION
Frames: 13
Frame Time: 0.016667
8.746313 -15.806246 83.375160 -2.670227 -0.341595 -113.845006 -1.997097 -5.566138 2.009927 -0.834870 -2.488100 0.805763 -0.834870 -2.488099 0.805764 -0.622773 -1.867184 0.600828 1.772138 -12.998635 -3.857078 1.778147 12.037152 -6.594084 10.519398 8.354017 -1.585365 44.158904 -17.834174 -13.633338 -28.375925 -60.939098 85.316829 -47.450776 43.204368 49.573796 -7.458434 6.969278 -6.209322 -41.420863 -10.526449 18.957567 -8.742823 -64.997337 -54.102181 34.529113 23.463163 -75.020920 -2.501022 0.282896 -10.173796 3.573504 -11.027195 -16.184336 -0.231885 8.206904 -0.334901 0.546510 1.549667 -0.154629 0.463383 -3.011318 12.278996 -0.028444 -3.508345 11.772590 2.709256 1.156334 4.327828 1.049352 -0.796005 0.205750 
8.622993 -16.000544 83.347206 -2.636690 -0.472685 -113.847977 -1.883631 -5.547799 1.948421 -0.813976 -2.462417 0.787546 -0.813976 -2.462417 0.787544 -0.607214 -1.847869 0.587289 1.681763 -13.058008 -3.816623 1.625682 11.924292 -6.553088 10.543981 8.311888 -1.522863 44.187728 -17.526335 -13.912228 -28.566520 -60.875188 85.457360 -47.308578 43.130076 49.678124 -7.460878 6.841002 -6.222762 -41.344180 -10.660618 18.871488 -8.983469 -65.042006 -53.927373 34.593289 23.433561 -74.901098 -2.224952 0.367628 -10.051678 3.503754 -11.108927 -16.820907 0.026421 7.930122 0.033940 0.226586 1.449802 -0.177709 0.788293 -3.099135 12.299771 -0.055038 -3.398381 11.520438 2.280776 1.254190 4.563223 1.096458 -0.840745 0.195390 
8.568081 -16.150711 83.339760 -2.603488 -0.587272 -113.830061 -1.771265 -5.531105 1.868021 -0.787913 -2.439379 0.767471 -0.787913 -2.439380 0.767471 -0.587782 -1.830531 0.572369 1.580336 -13.100222 -3.760674 1.457939 11.843193 -6.487527 10.580122 8.267884 -1.492271 44.146139 -17.306946 -14.048899 -28.793663 -60.843352 85.612542 -47.189295 43.185650 49.806614 -7.499666 6.721506 -6.227640 -41.333604 -10.783512 18.805719 -9.266901 -65.058433 -53.650043 34.639923 23.512872 -74.887874 -1.925148 0.436811 -9.942252 3.367082 -11.258703 -17.284135 0.366616 7.822172 0.291517 -0.073629 1.264139 -0.224791 1.053856 -3.212963 12.188363 -0.101346 -3.267945 11.163746 2.021235 1.319735 4.893535 1.036415 -0.846521 0.190031 
8.567303 -16.271505 83.348602 -2.598294 -0.635896 -113.809448 -1.720806 -5.493773 1.766032 -0.761503 -2.416599 0.749154 -0.761502 -2.416598 0.749157 -0.568080 -1.813389 0.558771 1.489777 -13.150661 -3.693319 1.315830 11.747563 -6.395601 10.598940 8.117360 -1.466716 44.109836 -17.168237 -14.053196 -29.127782 -60.785712 85.811491 -47.117384 43.337707 49.933925 -7.580525 6.568896 -6.223797 -41.361327 -10.844627 18.780522 -9.344093 -65.040203 -53.531973 34.662489 23.618678 -74.944319 -1.737934 0.591032 -9.714160 3.133616 -11.595858 -17.526095 0.763945 7.741233 0.286267 -0.264302 1.134763 -0.269868 1.217252 -3.302863 11.678455 -0.148090 -3.210245 10.720944 1.885079 1.305528 5.632532 0.891865 -0.753773 0.183458 
8.551999 -16.336924 83.366585 -2.614082 -0.649005 -113.848530 -1.713612 -5.435370 1.700620 -0.743195 -2.399879 0.742479 -0.743195 -2.399879 0.742481 -0.554398 -1.800818 0.553859 1.421309 -13.204323 -3.625268 1.215995 11.646902 -6.293215 10.583469 7.887736 -1.454180 44.087447 -17.134643 -13.954586 -29.473834 -60.681702 86.018241 -47.085828 43.478973 50.033823 -7.629518 6.365181 -6.211468 -41.408777 -10.791620 18.780877 -9.143792 -65.042129 -53.688678 34.699799 23.674284 -75.017532 -1.603612 0.895618 -9.159723 2.917898 -12.191294 -17.333835 0.997466 7.686988 -0.316740 -0.315995 1.109797 -0.297333 1.351313 -3.295560 10.708916 -0.259717 -3.316625 10.242903 1.898924 1.273960 6.724292 0.685108 -0.622720 0.184983 
8.419712 -16.370659 83.389015 -2.615892 -0.630145 -113.937562 -1.731718 -5.367562 1.685745 -0.746669 -2.394759 0.749499 -0.746669 -2.394759 0.749499 -0.556983 -1.796989 0.559118 1.387895 -13.240843 -3.571449 1.176058 11.579120 -6.203927 10.575313 7.765143 -1.435007 44.056035 -17.241633 -13.888311 -29.713666 -60.578826 86.187630 -47.093844 43.515675 50.071010 -7.630918 6.274394 -6.222167 -41.432938 -10.699696 18.849106 -8.850992 -65.108143 -53.960796 34.729927 23.680153 -75.066381 -1.573678 1.546084 -8.051235 2.869925 -13.231760 -17.017269 1.007424 7.642434 -1.378518 -0.219432 1.203218 -0.285781 1.507766 -3.113855 9.329106 -0.436339 -3.543860 9.725743 2.037670 1.150237 8.158244 0.437229 -0.487133 0.186639 
8.119636 -16.396206 83.417587 -2.597484 -0.599429 -114.049215 -1.757535 -5.307170 1.704893 -0.767224 -2.394600 0.763986 -0.767224 -2.394599 0.763989 -0.572340 -1.796915 0.569905 1.380745 -13.261830 -3.529313 1.180472 11.540915 -6.126476 10.576299 7.679483 -1.434406 43.985042 -17.391106 -13.778636 -29.762710 -60.548623 86.249204 -47.134582 43.443476 50.048170 -7.623407 6.256402 -6.260265 -41.361382 -10.595748 18.931666 -8.656706 -65.222207 -54.179058 34.768009 23.657105 -75.089235 -1.565636 2.481496 -6.437677 2.830525 -14.592660 -16.542107 0.898592 7.503785 -2.461671 0.003470 1.380432 -0.240108 1.701015 -2.723226 7.618154 -0.613495 -3.887852 9.383647 2.259312 0.906593 9.665275 0.138049 -0.367259 0.180939 
7.714446 -16.411617 83.453590 -2.569309 -0.518765 -114.153020 -1.828687 -5.243213 1.731006 -0.790097 -2.390612 0.777895 -0.790096 -2.390613 0.777891 -0.589443 -1.793971 0.580241 1.380696 -13.285707 -3.497022 1.194431 11.497388 -6.064731 10.568359 7.567188 -1.433054 43.901700 -17.483872 -13.620543 -29.614515 -60.605915 86.176135 -47.195108 43.313891 49.991961 -7.605016 6.174585 -6.287736 -41.225249 -10.479319 18.918770 -8.615456 -65.307182 -54.273749 34.792833 23.616730 -75.112355 -1.424176 3.440293 -4.688355 2.104711 -15.911684 -15.132460 1.247065 7.224536 -3.280432 0.135047 1.496304 -0.279394 1.858724 -2.173895 5.661306 -0.756420 -4.319552 9.424926 2.558198 0.595603 10.767269 -0.221508 -0.266838 0.162752 
7.232841 -16.421286 83.498207 -2.538671 -0.360978 -114.210325 -1.986088 -5.175868 1.744572 -0.796786 -2.375472 0.789549 -0.796786 -2.375473 0.789547 -0.594434 -1.782641 0.588981 1.377798 -13.316541 -3.479424 1.197286 11.440469 -6.031850 10.557399 7.453900 -1.419707 43.849459 -17.514506 -13.501500 -29.389638 -60.661546 86.053567 -47.239272 43.223332 49.947387 -7.584122 6.085397 -6.295854 -41.135501 -10.454909 18.839523 -8.541159 -65.288214 -54.350254 34.804721 23.557141 -75.145878 -1.504624 4.276378 -2.842099 1.293372 -17.025980 -12.353360 1.890204 6.842473 -4.025065 0.038707 1.627367 -0.546436 1.948378 -1.516007 3.684879 -0.842973 -4.757631 9.693562 2.708120 0.116379 11.467381 -0.472531 -0.062933 0.143010 
6.700713 -16.439898 83.487129 -2.491474 -0.395752 -114.157897 -1.964585 -5.183521 1.674930 -0.773619 -2.345651 0.793253 -0.773619 -2.345651 0.793250 -0.577090 -1.760248 0.591884 1.357507 -13.369883 -3.466332 1.166258 11.340989 -6.014034 10.558810 7.410590 -1.364330 43.838750 -17.534019 -13.547347 -29.282841 -60.624923 86.028910 -47.267446 43.231597 49.943101 -7.609734 6.034711 -6.277791 -41.137208 -10.516194 18.771489 -8.304310 -65.186916 -54.487066 34.759987 23.478850 -75.171279 -1.461690 5.109040 -0.649478 0.635799 -18.245477 -8.882968 2.351420 6.249538 -5.047491 0.084839 2.066196 -0.340946 2.251211 -0.932758 1.940638 -0.878040 -5.131729 9.736650 2.346849 -0.271314 11.759293 -0.314247 0.085649 0.116677 
6.175164 -16.426302 83.483543 -2.337817 -0.464993 -114.154161 -1.848977 -5.084833 1.672091 -0.728795 -2.297559 0.777084 -0.728795 -2.297560 0.777087 -0.543601 -1.724103 0.579997 1.316929 -13.455357 -3.445849 1.101098 11.181258 -5.989673 10.534782 7.357820 -1.307660 43.812231 -17.512371 -13.663648 -29.372388 -60.521166 86.199344 -47.273519 43.279381 49.955823 -7.684501 6.022581 -6.216719 -41.222606 -10.577978 18.781456 -7.947729 -65.118245 -54.677607 34.675248 23.390618 -75.184694 -1.357579 6.002943 2.190422 -0.065122 -19.361114 -5.670769 3.154902 5.781525 -5.369002 0.038895 2.356998 -0.090390 2.604485 -0.354770 0.734116 -0.781353 -5.209118 8.847079 1.253654 -0.584620 11.125572 0.401947 0.125170 0.090849 
5.782362 -16.397266 83.472427 -2.424220 -0.413136 -114.041599 -1.912948 -5.128273 1.580548 -0.679016 -2.252887 0.747916 -0.679017 -2.252887 0.747915 -0.506440 -1.690502 0.558362 1.273187 -13.538150 -3.415802 1.033716 11.026639 -5.948494 10.504689 7.358400 -1.272277 43.742113 -17.389513 -13.836223 -29.696703 -60.448977 86.605248 -47.191526 43.288079 50.022475 -7.770233 5.994355 -6.177133 -41.312478 -10.518059 18.872885 -7.682878 -65.161036 -54.802498 34.640370 23.311352 -75.207910 -1.420597 6.530398 5.249418 -1.048367 -20.288467 -2.776309 4.573050 5.557988 -4.775944 -0.224887 2.532344 -0.005806 2.594183 -0.127282 -0.345816 -0.458828 -4.776211 6.683548 -0.345633 -1.003337 10.570644 1.373739 0.074277 0.055865 
5.400805 -16.520155 83.433716 -2.487018 -0.502997 -113.912112 -1.823114 -5.158608 1.480960 -0.634077 -2.219992 0.708111 -0.634077 -2.219992 0.708109 -0.472925 -1.665733 0.528715 1.236919 -13.605790 -3.375790 0.983857 10.900668 -5.885815 10.467295 7.339956 -1.251222 43.674818 -17.194156 -13.990621 -30.193001 -60.384541 87.108148 -47.085989 43.277288 50.116844 -7.850844 5.899159 -6.153149 -41.351123 -10.369372 19.011611 -7.664286 -65.284902 -54.788472 34.696299 23.196975 -75.146397 -1.146619 6.640706 8.273405 -2.224895 -20.533582 -0.106003 6.030075 5.346194 -3.868687 -0.475167 2.547678 0.246043 2.521846 0.010962 -1.659134 -0.042048 -4.391902 4.179254 -2.150777 -1.106147 10.030711 2.349499 -0.064069 0.027250 
